<svg width="21" height="22" viewBox="0 0 21 22" fill="none" xmlns="http://www.w3.org/2000/svg">
<path d="M6.60893 15.3575C6.89476 15.5593 7.23543 15.6666 7.58426 15.6655V15.6608C7.91363 15.6616 8.23598 15.5657 8.51124 15.3848C8.7865 15.2039 9.00251 14.9461 9.13243 14.6435L9.8476 12.4688C10.0127 11.9761 10.2902 11.5286 10.6581 11.1617C11.026 10.7948 11.4743 10.5185 11.9674 10.3548L14.0418 9.68045C14.3765 9.56364 14.6657 9.34408 14.8683 9.0531C15.0708 8.76212 15.1762 8.4146 15.1695 8.06014C15.1628 7.70569 15.0442 7.36242 14.8308 7.07933C14.6174 6.79625 14.32 6.58781 13.9811 6.48379L11.9336 5.81879C11.4384 5.65374 10.9885 5.3756 10.6196 5.00643C10.2506 4.63726 9.97271 4.18721 9.80793 3.69195L9.1336 1.61879C9.01599 1.28859 8.79846 1.00322 8.51122 0.802342C8.22398 0.601459 7.8813 0.495035 7.5308 0.497857C7.1803 0.50068 6.83938 0.612609 6.55541 0.818092C6.27144 1.02357 6.05853 1.31241 5.94626 1.64445L5.2661 3.73512C5.10185 4.21597 4.83069 4.65331 4.47301 5.01422C4.11533 5.37513 3.68045 5.65022 3.2011 5.81879L1.12793 6.48379C0.795188 6.59892 0.506882 6.81542 0.303526 7.10286C0.10017 7.39029 -0.00801532 7.73422 -0.00582681 8.08631C-0.00363831 8.4384 0.108813 8.78096 0.315727 9.06585C0.522641 9.35074 0.813616 9.56363 1.14776 9.67462L3.1941 10.3385C3.68919 10.5047 4.13892 10.7836 4.5078 11.1533C4.87668 11.523 5.15464 11.9733 5.31976 12.4688L5.9941 14.5396C6.1096 14.8698 6.32426 15.1556 6.60893 15.3575ZM15.5538 21.2445C15.3311 21.0859 15.1638 20.8614 15.0754 20.6028L14.6928 19.4291C14.6186 19.2057 14.4934 19.0027 14.3271 18.836C14.1609 18.6694 13.9581 18.5437 13.7349 18.469L12.5788 18.0921C12.3143 18.0025 12.0844 17.8326 11.921 17.6062C11.7577 17.3797 11.6691 17.1079 11.6676 16.8286C11.6673 16.551 11.7538 16.2802 11.9151 16.0543C12.0764 15.8283 12.3044 15.6585 12.5671 15.5686L13.7408 15.1883C13.9591 15.1107 14.1567 14.9841 14.3185 14.8183C14.4803 14.6525 14.6019 14.4518 14.6741 14.2316L15.0521 13.0755C15.141 12.8138 15.309 12.5863 15.5329 12.4243C15.7567 12.2623 16.0254 12.1739 16.3017 12.1712C16.578 12.1685 16.8483 12.2517 17.0752 12.4093C17.3022 12.5669 17.4746 12.7911 17.5686 13.051L17.9524 14.234C18.0276 14.4557 18.1531 14.6571 18.319 14.8222C18.485 14.9874 18.687 15.1119 18.9091 15.186L20.0664 15.5628C20.3332 15.6462 20.567 15.8115 20.7345 16.0353C20.9021 16.259 20.995 16.5298 21 16.8093C21.0051 17.0888 20.922 17.3628 20.7626 17.5924C20.6032 17.822 20.3755 17.9956 20.1119 18.0886L18.9289 18.4725C18.7065 18.5475 18.5045 18.6732 18.3389 18.8396C18.1733 19.0061 18.0486 19.2086 17.9746 19.4315L17.5989 20.5853C17.5079 20.8536 17.3353 21.087 17.1031 21.2503C16.8766 21.4113 16.6054 21.4973 16.3275 21.4963C16.0496 21.4952 15.779 21.4072 15.5538 21.2445Z" fill="url(#paint0_linear_208_16460)"/>
<defs>
<linearGradient id="paint0_linear_208_16460" x1="-0.00585938" y1="10.997" x2="21.0003" y2="10.997" gradientUnits="userSpaceOnUse">
<stop stop-color="#00429B"/>
<stop offset="1" stop-color="#6BAAFF"/>
</linearGradient>
</defs>
</svg>
