<svg width="124" height="36" viewBox="0 0 124 36" fill="none" xmlns="http://www.w3.org/2000/svg">
<path d="M19.6975 28.4557H14.0463V25.8178C13.2417 26.7723 12.2939 27.513 11.2014 28.0399C10.1089 28.5668 8.99786 28.8311 7.86662 28.8311C6.81114 28.8311 5.85161 28.6425 4.98466 28.2654C4.11772 27.8884 3.37703 27.3682 2.76259 26.7016C2.14647 26.0366 1.66333 25.2387 1.31151 24.3095C0.959678 23.3802 0.784607 22.3635 0.784607 21.2575V8.56137H6.43574V20.0151C6.43574 21.1447 6.74212 22.0436 7.35824 22.7086C7.97268 23.3735 8.79585 23.7068 9.82609 23.7068C10.4035 23.7068 10.9439 23.5873 11.4455 23.3483C11.9472 23.1092 12.3865 22.7776 12.7636 22.35C13.1407 21.9224 13.442 21.4208 13.6676 20.8434C13.8931 20.266 14.0194 19.6381 14.0447 18.9597V8.56137H19.6958V28.454L19.6975 28.4557Z" fill="white"/>
<path d="M23.5008 3.13745C23.5008 2.28397 23.8072 1.55506 24.4233 0.952411C25.0378 0.349758 25.8104 0.0484314 26.7397 0.0484314C27.6689 0.0484314 28.4029 0.349758 29.019 0.952411C29.6334 1.55506 29.9415 2.28397 29.9415 3.13745C29.9415 3.99093 29.6334 4.75687 29.019 5.35952C28.4029 5.96218 27.6437 6.2635 26.7397 6.2635C25.8357 6.2635 25.0378 5.96218 24.4233 5.35952C23.8072 4.75687 23.5008 4.01618 23.5008 3.13745ZM23.915 8.56301H29.5291V28.4556H23.915V8.56301Z" fill="white"/>
<path d="M33.7868 8.56287H39.438V11.2007C40.2409 10.2463 41.1836 9.50556 42.2644 8.97866C43.3434 8.45176 44.4612 8.18747 45.6177 8.18747C46.6732 8.18747 47.6327 8.37601 48.4996 8.75309C49.3666 9.13017 50.1073 9.65707 50.7217 10.3355C51.3362 11.0139 51.8193 11.8185 52.1728 12.7461C52.5246 13.6753 52.6997 14.6921 52.6997 15.7981V28.4572H47.0486V17.0034C47.0486 15.8991 46.7405 15.0069 46.1261 14.3285C45.5099 13.6501 44.6885 13.3117 43.6582 13.3117C43.0808 13.3117 42.5405 13.4312 42.0388 13.6703C41.5355 13.9093 41.0978 14.2426 40.7207 14.6685C40.3436 15.0961 40.0423 15.5977 39.8167 16.1751C39.5912 16.7526 39.4649 17.3805 39.4397 18.0589V28.4572H33.7885V8.56455L33.7868 8.56287Z" fill="white"/>
<path d="M61.5926 20.0166C61.8182 21.2724 62.3518 22.2589 63.1935 22.9744C64.0352 23.6898 65.0957 24.0484 66.3768 24.0484C67.2808 24.0484 68.0652 23.8598 68.7319 23.4827C69.3968 23.1057 69.8564 22.5788 70.1072 21.9004H75.7213C75.1439 24.1359 74.0127 25.8445 72.331 27.0246C70.6476 28.2063 68.5888 28.7955 66.1529 28.7955C64.621 28.7955 63.207 28.5447 61.9141 28.0414C60.6196 27.5397 59.5153 26.836 58.5979 25.9321C57.6804 25.0281 56.965 23.9423 56.4499 22.673C55.9347 21.4054 55.6772 20.0166 55.6772 18.51C55.6772 17.0034 55.928 15.6163 56.4314 14.347C56.933 13.0794 57.6367 11.9919 58.5406 11.0879C59.4446 10.184 60.5237 9.47358 61.7812 8.96015C63.037 8.44503 64.419 8.18747 65.9257 8.18747C67.306 8.18747 68.5938 8.40126 69.7873 8.82716C70.9809 9.25474 72.0229 9.84392 72.9151 10.5981C73.8056 11.3522 74.5295 12.263 75.0816 13.3302C75.6338 14.3975 75.9603 15.5725 76.0613 16.8536C76.1118 17.431 76.1421 17.8888 76.1556 18.2289C76.1674 18.5672 76.1741 18.8265 76.1741 19.0016C76.1741 19.3534 76.1607 19.6934 76.1371 20.0183H61.5943L61.5926 20.0166ZM70.4456 16.6633C70.3193 15.5338 69.8614 14.6483 69.0702 14.0069C68.279 13.3656 67.2808 13.0457 66.0755 13.0457C64.9695 13.0457 64.0285 13.3656 63.2491 14.0069C62.4697 14.6483 61.9428 15.5321 61.6667 16.6633H70.4456Z" fill="white"/>
<path d="M92.3349 0.538243V5.43522H88.6803C87.2477 5.43522 86.5323 6.31395 86.5323 8.07309V8.56296H92.0336V13.0845H86.5323V28.4556H80.8812V13.0845H77.7921V8.56296H80.8812V7.88455C80.8812 5.44869 81.4401 3.61548 82.5578 2.38324C83.6756 1.15268 85.3388 0.53656 87.5491 0.53656H92.3333L92.3349 0.538243Z" fill="white"/>
<path d="M94.2946 3.13745C94.2946 2.28397 94.601 1.55506 95.2171 0.952411C95.8316 0.349758 96.6043 0.0484314 97.5335 0.0484314C98.4627 0.0484314 99.1967 0.349758 99.8128 0.952411C100.427 1.55506 100.735 2.28397 100.735 3.13745C100.735 3.99093 100.427 4.75687 99.8128 5.35952C99.1967 5.96218 98.4375 6.2635 97.5335 6.2635C96.6295 6.2635 95.8316 5.96218 95.2171 5.35952C94.601 4.75687 94.2946 4.01618 94.2946 3.13745ZM94.7088 8.56301H100.323V28.4556H94.7088V8.56301Z" fill="white"/>
<path d="M107.631 35.802L110.419 28.2284L102.845 8.56137H108.798L113.092 20.6548L117.538 8.56137H123.453L113.018 35.8003H107.631V35.802Z" fill="white"/>
</svg>
