<svg width="22" height="21" viewBox="0 0 22 21" fill="none" xmlns="http://www.w3.org/2000/svg">
<path d="M6.59261 12.0166C6.81819 13.2724 7.35182 14.2589 8.19352 14.9744C9.03521 15.6898 10.0957 16.0484 11.3768 16.0484C12.2808 16.0484 13.0652 15.8598 13.7319 15.4827C14.3968 15.1057 14.8564 14.5788 15.1072 13.9004H20.7213C20.1439 16.1359 19.0127 17.8445 17.331 19.0246C15.6476 20.2063 13.5888 20.7955 11.1529 20.7955C9.62103 20.7955 8.20699 20.5447 6.91415 20.0414C5.61962 19.5397 4.51532 18.836 3.59787 17.9321C2.68042 17.0281 1.96498 15.9423 1.44986 14.673C0.934748 13.4054 0.677185 12.0166 0.677185 10.51C0.677185 9.00338 0.928017 7.61626 1.43135 6.34699C1.933 5.0794 2.63665 3.99193 3.54063 3.08795C4.44461 2.18397 5.52366 1.47358 6.78115 0.960145C8.03696 0.445029 9.41902 0.187469 10.9257 0.187469C12.306 0.187469 13.5938 0.40126 14.7873 0.827158C15.9809 1.25474 17.0229 1.84392 17.9151 2.59808C18.8056 3.35224 19.5295 4.26295 20.0816 5.33022C20.6338 6.39749 20.9603 7.57249 21.0613 8.85355C21.1118 9.43095 21.1421 9.88884 21.1556 10.2289C21.1674 10.5672 21.1741 10.8265 21.1741 11.0016C21.1741 11.3534 21.1607 11.6934 21.1371 12.0183H6.5943L6.59261 12.0166ZM15.4456 8.66333C15.3193 7.53378 14.8614 6.64831 14.0702 6.00694C13.279 5.36557 12.2808 5.04573 11.0755 5.04573C9.96949 5.04573 9.02848 5.36557 8.24907 6.00694C7.46966 6.64831 6.94276 7.53209 6.66668 8.66333H15.4456Z" fill="white"/>
</svg>
