<svg width="153" height="40" viewBox="0 0 153 40" fill="none" xmlns="http://www.w3.org/2000/svg">
<path d="M42.1391 34.4719C41.8193 34.3423 41.486 34.2783 41.1392 34.2783C40.651 34.2783 40.2016 34.3962 39.7908 34.6318C39.3784 34.8675 39.0518 35.1857 38.8111 35.5897C38.5704 35.9937 38.4491 36.4331 38.4491 36.9095C38.4491 37.3859 38.5704 37.8252 38.8111 38.2292C39.0518 38.6332 39.3784 38.9531 39.7908 39.1921C40.2032 39.4312 40.6527 39.549 41.1392 39.549C41.486 39.549 41.8193 39.4867 42.1358 39.3605C42.4523 39.2342 42.7367 39.0558 42.9892 38.8268L43.2081 39.0709C42.9337 39.3285 42.6155 39.5305 42.2536 39.6753C41.8917 39.8217 41.518 39.8941 41.1308 39.8941C40.582 39.8941 40.0736 39.7611 39.609 39.4951C39.1444 39.2292 38.7757 38.8672 38.503 38.411C38.2303 37.9548 38.0956 37.4566 38.0956 36.9196C38.0956 36.3826 38.232 35.8843 38.503 35.4281C38.774 34.9719 39.1427 34.6099 39.609 34.344C40.0736 34.078 40.5803 33.945 41.1308 33.945C41.518 33.945 41.8883 34.0157 42.2452 34.1554C42.6004 34.2952 42.9185 34.4921 43.1997 34.7446L42.9892 35.014C42.7435 34.7833 42.459 34.6049 42.1408 34.4753L42.1391 34.4719Z" fill="white"/>
<path d="M48.5857 39.8605L47.1986 37.8691C47.0588 37.8909 46.8922 37.9027 46.702 37.9027H44.9782V39.8605H44.6247V33.9855H46.7003C47.4292 33.9855 47.9914 34.1538 48.3854 34.4905C48.781 34.8272 48.9779 35.3036 48.9779 35.9197C48.9779 36.418 48.855 36.8287 48.6076 37.1519C48.3601 37.4751 48.0015 37.694 47.5319 37.8118L49.0032 39.8622H48.5823L48.5857 39.8605ZM46.7104 37.5559C47.3265 37.5559 47.8012 37.4162 48.1345 37.1351C48.4678 36.8556 48.6345 36.4516 48.6345 35.9247C48.6345 35.3978 48.4678 35.014 48.1345 34.7396C47.8012 34.4652 47.3265 34.3272 46.7104 34.3272H44.9782V37.5543H46.7104V37.5559Z" fill="white"/>
<path d="M54.4857 33.9838V34.3289H51.0482V36.6739H54.1086V37.0274H51.0482V39.5154H54.5951V39.8605H50.6947V33.9855H54.4857V33.9838Z" fill="white"/>
<path d="M59.7744 38.1872H56.3369L55.581 39.8605H55.1938L57.8587 33.9855H58.2374L60.9275 39.8605H60.5403L59.776 38.1872H59.7744ZM59.6144 37.8337L58.0421 34.3878L56.4867 37.8337H59.6144Z" fill="white"/>
<path d="M64.8918 33.9838V34.3289H62.9087V39.8605H62.5552V34.3289H60.5705V33.9838H64.8918Z" fill="white"/>
<path d="M66.3551 33.9838V39.8589H66.0016V33.9838H66.3551Z" fill="white"/>
<path d="M67.8272 33.9838L70.0543 39.4397L72.2898 33.9838H72.677L70.2395 39.8589H69.8691L67.4316 33.9838H67.8272Z" fill="white"/>
<path d="M77.5437 33.9838V34.3289H74.1062V36.6739H77.1666V37.0274H74.1062V39.5154H77.6531V39.8605H73.7527V33.9855H77.5437V33.9838Z" fill="white"/>
<path d="M84.6488 38.1872H81.2113L80.4555 39.8605H80.0683L82.7331 33.9855H83.1119L85.8019 39.8605H85.4147L84.6505 38.1872H84.6488ZM84.4889 37.8337L82.9166 34.3878L81.3611 37.8337H84.4889Z" fill="white"/>
<path d="M90.9181 36.9769H91.238V39.1198C90.9636 39.3605 90.6438 39.5508 90.2801 39.6871C89.9149 39.8252 89.5411 39.8925 89.154 39.8925C88.6052 39.8925 88.0968 39.7578 87.6322 39.4885C87.1676 39.2191 86.7989 38.8572 86.5262 38.3993C86.2535 37.9431 86.1188 37.4448 86.1188 36.9078C86.1188 36.3708 86.2568 35.8742 86.5312 35.4197C86.8056 34.9652 87.1777 34.6067 87.6456 34.339C88.1136 34.073 88.622 33.94 89.1708 33.94C89.558 33.94 89.9283 34.0091 90.2852 34.1454C90.6404 34.2834 90.9586 34.4754 91.2397 34.7211L91.0293 34.9821C90.7835 34.7582 90.499 34.5848 90.1808 34.4602C89.861 34.3373 89.526 34.275 89.1725 34.275C88.6843 34.275 88.2348 34.3945 87.8241 34.6319C87.4116 34.8709 87.0851 35.1891 86.841 35.5898C86.5969 35.9904 86.4757 36.4298 86.4757 36.9045C86.4757 37.3792 86.5952 37.8287 86.8376 38.2327C87.0783 38.6367 87.4066 38.9565 87.8207 39.1956C88.2348 39.4346 88.686 39.5525 89.1742 39.5525C89.494 39.5525 89.8054 39.4986 90.1068 39.3925C90.4098 39.2865 90.6808 39.135 90.9215 38.938V36.9718L90.9181 36.9769Z" fill="white"/>
<path d="M96.902 33.9838V34.3289H93.4645V36.6739H96.5249V37.0274H93.4645V39.5154H97.0114V39.8605H93.111V33.9855H96.902V33.9838Z" fill="white"/>
<path d="M103.232 33.9838V39.8589H102.82L98.9025 34.5124V39.8589H98.549V33.9838H98.9615L102.887 39.3387V33.9838H103.232Z" fill="white"/>
<path d="M108.67 34.4719C108.35 34.3423 108.016 34.2783 107.67 34.2783C107.181 34.2783 106.732 34.3962 106.321 34.6318C105.909 34.8675 105.582 35.1857 105.341 35.5897C105.101 35.9937 104.98 36.4331 104.98 36.9095C104.98 37.3859 105.099 37.8252 105.341 38.2292C105.582 38.6332 105.909 38.9531 106.321 39.1921C106.734 39.4312 107.183 39.549 107.67 39.549C108.016 39.549 108.35 39.4867 108.666 39.3605C108.983 39.2342 109.267 39.0558 109.52 38.8268L109.739 39.0709C109.464 39.3285 109.146 39.5305 108.784 39.6753C108.422 39.8217 108.048 39.8941 107.661 39.8941C107.112 39.8941 106.604 39.7611 106.139 39.4951C105.675 39.2292 105.306 38.8672 105.033 38.411C104.761 37.9548 104.626 37.4566 104.626 36.9196C104.626 36.3826 104.762 35.8843 105.033 35.4281C105.304 34.9719 105.673 34.6099 106.139 34.344C106.604 34.078 107.112 33.945 107.661 33.945C108.048 33.945 108.419 34.0157 108.776 34.1554C109.131 34.2952 109.449 34.4921 109.73 34.7446L109.52 35.014C109.274 34.7833 108.989 34.6049 108.671 34.4753L108.67 34.4719Z" fill="white"/>
<path d="M112.916 37.7075V39.8589H112.571V37.7243L110.218 33.9838H110.596L112.739 37.2866L114.857 33.9838H115.236L112.916 37.7075Z" fill="white"/>
<path d="M48.6975 28.4557H43.0463V25.8178C42.2417 26.7723 41.2939 27.513 40.2014 28.0399C39.1089 28.5668 37.9979 28.8311 36.8666 28.8311C35.8111 28.8311 34.8516 28.6425 33.9847 28.2654C33.1177 27.8884 32.377 27.3682 31.7626 26.7016C31.1465 26.0366 30.6633 25.2387 30.3115 24.3095C29.9597 23.3802 29.7846 22.3635 29.7846 21.2575V8.56137H35.4357V20.0151C35.4357 21.1447 35.7421 22.0436 36.3582 22.7086C36.9727 23.3735 37.7959 23.7068 38.8261 23.7068C39.4035 23.7068 39.9439 23.5873 40.4455 23.3483C40.9472 23.1092 41.3865 22.7776 41.7636 22.35C42.1407 21.9224 42.442 21.4208 42.6676 20.8434C42.8931 20.266 43.0194 19.6381 43.0447 18.9597V8.56137H48.6958V28.454L48.6975 28.4557Z" fill="white"/>
<path d="M52.5008 3.13745C52.5008 2.28397 52.8072 1.55506 53.4233 0.952411C54.0378 0.349758 54.8104 0.0484314 55.7397 0.0484314C56.6689 0.0484314 57.4029 0.349758 58.019 0.952411C58.6334 1.55506 58.9415 2.28397 58.9415 3.13745C58.9415 3.99093 58.6334 4.75687 58.019 5.35952C57.4029 5.96218 56.6437 6.2635 55.7397 6.2635C54.8357 6.2635 54.0378 5.96218 53.4233 5.35952C52.8072 4.75687 52.5008 4.01618 52.5008 3.13745ZM52.915 8.56301H58.5291V28.4556H52.915V8.56301Z" fill="white"/>
<path d="M62.7868 8.56287H68.438V11.2007C69.2409 10.2463 70.1836 9.50556 71.2644 8.97866C72.3434 8.45176 73.4612 8.18747 74.6177 8.18747C75.6732 8.18747 76.6327 8.37601 77.4996 8.75309C78.3666 9.13017 79.1073 9.65707 79.7217 10.3355C80.3362 11.0139 80.8193 11.8185 81.1728 12.7461C81.5246 13.6753 81.6997 14.6921 81.6997 15.7981V28.4572H76.0486V17.0034C76.0486 15.8991 75.7405 15.0069 75.1261 14.3285C74.5099 13.6501 73.6885 13.3117 72.6582 13.3117C72.0808 13.3117 71.5405 13.4312 71.0388 13.6703C70.5355 13.9093 70.0978 14.2426 69.7207 14.6685C69.3436 15.0961 69.0423 15.5977 68.8167 16.1751C68.5912 16.7526 68.4649 17.3805 68.4397 18.0589V28.4572H62.7885V8.56455L62.7868 8.56287Z" fill="white"/>
<path d="M90.5926 20.0166C90.8182 21.2724 91.3518 22.2589 92.1935 22.9744C93.0352 23.6898 94.0957 24.0484 95.3768 24.0484C96.2808 24.0484 97.0652 23.8598 97.7319 23.4827C98.3968 23.1057 98.8564 22.5788 99.1072 21.9004H104.721C104.144 24.1359 103.013 25.8445 101.331 27.0246C99.6476 28.2063 97.5888 28.7955 95.1529 28.7955C93.621 28.7955 92.207 28.5447 90.9141 28.0414C89.6196 27.5397 88.5153 26.836 87.5979 25.9321C86.6804 25.0281 85.965 23.9423 85.4499 22.673C84.9347 21.4054 84.6772 20.0166 84.6772 18.51C84.6772 17.0034 84.928 15.6163 85.4314 14.347C85.933 13.0794 86.6367 11.9919 87.5406 11.0879C88.4446 10.184 89.5237 9.47358 90.7812 8.96015C92.037 8.44503 93.419 8.18747 94.9257 8.18747C96.306 8.18747 97.5938 8.40126 98.7873 8.82716C99.9809 9.25474 101.023 9.84392 101.915 10.5981C102.806 11.3522 103.529 12.263 104.082 13.3302C104.634 14.3975 104.96 15.5725 105.061 16.8536C105.112 17.431 105.142 17.8888 105.156 18.2289C105.167 18.5672 105.174 18.8265 105.174 19.0016C105.174 19.3534 105.161 19.6934 105.137 20.0183H90.5943L90.5926 20.0166ZM99.4456 16.6633C99.3193 15.5338 98.8614 14.6483 98.0702 14.0069C97.279 13.3656 96.2808 13.0457 95.0755 13.0457C93.9695 13.0457 93.0285 13.3656 92.2491 14.0069C91.4697 14.6483 90.9428 15.5321 90.6667 16.6633H99.4456Z" fill="white"/>
<path d="M121.335 0.538243V5.43522H117.68C116.248 5.43522 115.532 6.31395 115.532 8.07309V8.56296H121.034V13.0845H115.532V28.4556H109.881V13.0845H106.792V8.56296H109.881V7.88455C109.881 5.44869 110.44 3.61548 111.558 2.38324C112.676 1.15268 114.339 0.53656 116.549 0.53656H121.333L121.335 0.538243Z" fill="white"/>
<path d="M123.295 3.13745C123.295 2.28397 123.601 1.55506 124.217 0.952411C124.832 0.349758 125.604 0.0484314 126.533 0.0484314C127.463 0.0484314 128.197 0.349758 128.813 0.952411C129.427 1.55506 129.735 2.28397 129.735 3.13745C129.735 3.99093 129.427 4.75687 128.813 5.35952C128.197 5.96218 127.437 6.2635 126.533 6.2635C125.63 6.2635 124.832 5.96218 124.217 5.35952C123.601 4.75687 123.295 4.01618 123.295 3.13745ZM123.709 8.56301H129.323V28.4556H123.709V8.56301Z" fill="white"/>
<path d="M136.631 35.802L139.419 28.2284L131.845 8.56137H137.798L142.092 20.6548L146.538 8.56137H152.453L142.018 35.8003H136.631V35.802Z" fill="white"/>
<path d="M13.4438 19.9865C15.7941 19.9865 17.6994 18.0812 17.6994 15.7309C17.6994 13.3805 15.7941 11.4753 13.4438 11.4753C11.0935 11.4753 9.18821 13.3805 9.18821 15.7309C9.18821 18.0812 11.0935 19.9865 13.4438 19.9865Z" fill="#2C69C4"/>
<path d="M13.1508 22.4627C9.56691 22.3078 6.70683 19.3534 6.70683 15.7308C6.70683 12.1081 9.56522 9.15378 13.1508 8.99891V2.84781C6.16983 3.00436 0.559097 8.71273 0.559097 15.7308C0.559097 22.7488 6.16983 28.4572 13.1508 28.6138V22.4627Z" fill="white"/>
<path d="M13.7413 2.84616V8.99726C17.3252 9.15213 20.1853 12.1065 20.1853 15.7291C20.1853 19.3518 17.3269 22.3061 13.7413 22.461V28.6121C20.7223 28.4555 26.333 22.7472 26.333 15.7291C26.333 8.71109 20.7223 3.00272 13.7413 2.84616Z" fill="#2C69C4"/>
<path d="M24.6954 25.5433L20.125 20.6295L19.0864 21.5957L23.6568 26.5095C22.8235 27.7249 22.911 29.3965 23.9564 30.521C25.1684 31.824 27.207 31.8981 28.51 30.686C29.8129 29.474 29.887 27.4354 28.6749 26.1325C27.6296 25.0079 25.9681 24.7992 24.6954 25.5416V25.5433Z" fill="#2C69C4"/>
</svg>
