<svg width="20" height="21" viewBox="0 0 20 21" fill="none" xmlns="http://www.w3.org/2000/svg">
<path d="M0.786835 0.562866H6.43797V3.20074C7.24095 2.24625 8.18364 1.50556 9.26438 0.978663C10.3434 0.451762 11.4612 0.187469 12.6177 0.187469C13.6732 0.187469 14.6327 0.376009 15.4996 0.753088C16.3666 1.13017 17.1073 1.65707 17.7217 2.33547C18.3362 3.01388 18.8193 3.81854 19.1728 4.74609C19.5246 5.67532 19.6997 6.69208 19.6997 7.79807V20.4572H14.0486V9.00337C14.0486 7.89907 13.7405 7.00688 13.1261 6.32847C12.5099 5.65007 11.6885 5.3117 10.6582 5.3117C10.0808 5.3117 9.54045 5.43122 9.0388 5.67027C8.53547 5.90931 8.09779 6.24262 7.72071 6.66852C7.34363 7.0961 7.04231 7.59774 6.81673 8.17515C6.59116 8.75255 6.4649 9.38045 6.43965 10.0589V20.4572H0.788515V0.564548L0.786835 0.562866Z" fill="white"/>
</svg>
