<svg width="1920" height="1080" viewBox="0 0 1920 1080" fill="none" xmlns="http://www.w3.org/2000/svg">
<g clip-path="url(#clip0_2799_2912)">
<g filter="url(#filter0_f_2799_2912)">
<path d="M-362.749 329.217L1744.52 -865.699L2013.77 -23.4117L-362.749 329.217Z" fill="url(#paint0_linear_2799_2912)"/>
</g>
<g style="mix-blend-mode:plus-lighter" opacity="0.4" filter="url(#filter1_f_2799_2912)">
<path d="M-362.749 329.217L1744.52 -865.699L2013.77 -23.4117L-362.749 329.217Z" fill="url(#paint1_linear_2799_2912)"/>
</g>
<g filter="url(#filter2_f_2799_2912)">
<path d="M2566.63 -350.083C3295.35 -697.371 3707.54 -399.205 3822.54 -206.711C3462.78 -1087.25 2760.97 -1165.98 1818.4 -624.945C1064.35 -192.119 1199.29 533.283 1361.01 841.88C1459.25 589.262 1837.92 -2.79563 2566.63 -350.083Z" fill="url(#paint2_linear_2799_2912)"/>
</g>
<g style="mix-blend-mode:plus-lighter" opacity="0.2" filter="url(#filter3_f_2799_2912)">
<path d="M2566.63 -350.083C3295.35 -697.371 3707.54 -399.205 3822.54 -206.711C3462.78 -1087.25 2760.97 -1165.98 1818.4 -624.945C1064.35 -192.119 1199.29 533.283 1361.01 841.88C1459.25 589.262 1837.92 -2.79563 2566.63 -350.083Z" fill="url(#paint3_linear_2799_2912)"/>
</g>
</g>
<defs>
<filter id="filter0_f_2799_2912" x="-591.908" y="-1094.86" width="2834.84" height="1653.23" filterUnits="userSpaceOnUse" color-interpolation-filters="sRGB">
<feFlood flood-opacity="0" result="BackgroundImageFix"/>
<feBlend mode="normal" in="SourceGraphic" in2="BackgroundImageFix" result="shape"/>
<feGaussianBlur stdDeviation="114.579" result="effect1_foregroundBlur_2799_2912"/>
</filter>
<filter id="filter1_f_2799_2912" x="-591.908" y="-1094.86" width="2834.84" height="1653.23" filterUnits="userSpaceOnUse" color-interpolation-filters="sRGB">
<feFlood flood-opacity="0" result="BackgroundImageFix"/>
<feBlend mode="normal" in="SourceGraphic" in2="BackgroundImageFix" result="shape"/>
<feGaussianBlur stdDeviation="114.579" result="effect1_foregroundBlur_2799_2912"/>
</filter>
<filter id="filter2_f_2799_2912" x="934.969" y="-1265.33" width="3187.57" height="2407.21" filterUnits="userSpaceOnUse" color-interpolation-filters="sRGB">
<feFlood flood-opacity="0" result="BackgroundImageFix"/>
<feBlend mode="normal" in="SourceGraphic" in2="BackgroundImageFix" result="shape"/>
<feGaussianBlur stdDeviation="150" result="effect1_foregroundBlur_2799_2912"/>
</filter>
<filter id="filter3_f_2799_2912" x="934.969" y="-1265.33" width="3187.57" height="2407.21" filterUnits="userSpaceOnUse" color-interpolation-filters="sRGB">
<feFlood flood-opacity="0" result="BackgroundImageFix"/>
<feBlend mode="normal" in="SourceGraphic" in2="BackgroundImageFix" result="shape"/>
<feGaussianBlur stdDeviation="150" result="effect1_foregroundBlur_2799_2912"/>
</filter>
<linearGradient id="paint0_linear_2799_2912" x1="313.508" y1="72.0887" x2="436.128" y2="-1083.54" gradientUnits="userSpaceOnUse">
<stop stop-color="#5236B7"/>
<stop offset="1" stop-opacity="0"/>
</linearGradient>
<linearGradient id="paint1_linear_2799_2912" x1="313.508" y1="72.0887" x2="436.128" y2="-1083.54" gradientUnits="userSpaceOnUse">
<stop stop-color="#5236B7"/>
<stop offset="1" stop-opacity="0"/>
</linearGradient>
<linearGradient id="paint2_linear_2799_2912" x1="1650.98" y1="-242.015" x2="3496.82" y2="-1213.07" gradientUnits="userSpaceOnUse">
<stop stop-color="#9F45FF"/>
<stop offset="1"/>
</linearGradient>
<linearGradient id="paint3_linear_2799_2912" x1="1650.98" y1="-242.015" x2="3496.82" y2="-1213.07" gradientUnits="userSpaceOnUse">
<stop stop-color="#9F45FF"/>
<stop offset="1"/>
</linearGradient>
<clipPath id="clip0_2799_2912">
<rect width="1920" height="1080" fill="white"/>
</clipPath>
</defs>
</svg>
