<svg width="20" height="20" viewBox="0 0 20 20" fill="none" xmlns="http://www.w3.org/2000/svg">
<path d="M12.5 2.9165H7.50001C4.9687 2.9165 2.91667 4.96853 2.91667 7.49984V12.4998C2.91667 15.0311 4.9687 17.0832 7.50001 17.0832H12.5C15.0313 17.0832 17.0833 15.0311 17.0833 12.4998V7.49984C17.0833 4.96853 15.0313 2.9165 12.5 2.9165Z" stroke="white" stroke-opacity="0.75" stroke-width="1.5" stroke-linecap="round" stroke-linejoin="round"/>
<path d="M10 13.0046C11.6596 13.0046 13.005 11.6592 13.005 9.99963C13.005 8.34001 11.6596 6.99463 10 6.99463C8.34039 6.99463 6.99501 8.34001 6.99501 9.99963C6.99501 11.6592 8.34039 13.0046 10 13.0046Z" stroke="white" stroke-opacity="0.75" stroke-width="1.5" stroke-linecap="round" stroke-linejoin="round"/>
<path d="M14.0783 6.77965C14.5524 6.77965 14.9367 6.39537 14.9367 5.92132C14.9367 5.44728 14.5524 5.06299 14.0783 5.06299C13.6043 5.06299 13.22 5.44728 13.22 5.92132C13.22 6.39537 13.6043 6.77965 14.0783 6.77965Z" fill="white" fill-opacity="0.75"/>
</svg>
