<svg width="20" height="21" viewBox="0 0 20 21" fill="none" xmlns="http://www.w3.org/2000/svg">
<path d="M19.6975 20.4557H14.0463V17.8178C13.2417 18.7723 12.2939 19.513 11.2014 20.0399C10.1089 20.5668 8.99786 20.8311 7.86662 20.8311C6.81114 20.8311 5.85161 20.6425 4.98466 20.2654C4.11772 19.8884 3.37703 19.3682 2.76259 18.7016C2.14647 18.0366 1.66333 17.2387 1.31151 16.3095C0.959678 15.3802 0.784607 14.3635 0.784607 13.2575V0.561371H6.43574V12.0151C6.43574 13.1447 6.74212 14.0436 7.35824 14.7086C7.97268 15.3735 8.79585 15.7068 9.82609 15.7068C10.4035 15.7068 10.9439 15.5873 11.4455 15.3483C11.9472 15.1092 12.3865 14.7776 12.7636 14.35C13.1407 13.9224 13.442 13.4208 13.6676 12.8434C13.8931 12.266 14.0194 11.6381 14.0447 10.9597V0.561371H19.6958V20.454L19.6975 20.4557Z" fill="white"/>
</svg>
