<svg width="448" height="262" viewBox="0 0 448 262" fill="none" xmlns="http://www.w3.org/2000/svg">
<path d="M198.261 3.28217C198.941 3.16033 199.396 2.51067 199.277 1.83112C199.158 1.15158 198.511 0.699461 197.831 0.821299L198.046 2.05173L198.261 3.28217ZM448 259.987L448.234 258.758C282.6 227.9 172.192 198.524 102.747 171.297C68.0204 157.682 43.6033 144.63 27.6559 132.243C11.6888 119.841 4.38574 108.245 3.48916 97.5686C2.59579 86.9306 8.03399 76.7947 18.5381 67.2149C29.0403 57.637 44.4524 48.7666 63.0818 40.713C100.326 24.6118 150.11 11.9097 198.261 3.28217L198.046 2.05173L197.831 0.821299C149.593 9.46424 99.5963 22.208 62.098 38.4188C43.3559 46.5212 27.6557 55.5234 16.8579 65.3708C6.06221 75.2165 0.013006 86.0589 0.998033 97.7883C1.97985 109.48 9.92105 121.64 26.1173 134.22C42.3332 146.815 66.9986 159.971 101.826 173.625C171.492 200.938 282.083 230.349 447.766 261.216L448 259.987Z" fill="url(#paint0_linear_57_3886)"/>
<defs>
<linearGradient id="paint0_linear_57_3886" x1="225.759" y1="262.723" x2="222.545" y2="1.75005" gradientUnits="userSpaceOnUse">
<stop stop-color="#6BAAFF"/>
<stop offset="1" stop-color="#00429B" stop-opacity="0.13"/>
</linearGradient>
</defs>
</svg>
